<?xml version="1.0" encoding="utf-8"?>
<!-- Generator: Adobe Illustrator 22.1.0, SVG Export Plug-In . SVG Version: 6.00 Build 0)  -->
<svg version="1.1" id="Capa_1" xmlns="http://www.w3.org/2000/svg" xmlns:xlink="http://www.w3.org/1999/xlink" x="0px" y="0px"
	 viewBox="0 0 477.8 477.8" style="enable-background:new 0 0 477.8 477.8;" xml:space="preserve">
<style type="text/css">
	.st0{fill:#FFFFFF;}
</style>
<path class="st0" d="M477.7,211.8c-0.4-2.3-2-4.2-4.2-5L132,86c-12.7-4.5-26.7,2.2-31.1,14.9l-29.4,83.1c-2.2,6.1-1.8,12.8,1,18.6
	c2.8,5.8,7.8,10.3,13.9,12.5l104.8,37.1v49.2c-0.5,0-1-0.2-1.6-0.2h-156C15,301.2,0,316.2,0,334.7s15,33.5,33.5,33.5h156
	c0.5,0,1-0.1,1.6-0.2v8.4c0,9.3,7.5,16.8,16.8,16.8c9.3,0,16.8-7.5,16.8-16.8V264l122.1,43.2c8,2.8,16.9,1.3,23.5-4.1l4.8-3.9
	l41,14.5c6.1,2.2,12.8,1.8,18.6-1c5.8-2.8,10.3-7.8,12.5-13.9l8.7-24.5c4.2-12-1.5-25-12.9-30.2l32.4-26.3
	C477.2,216.5,478.1,214.2,477.7,211.8z M246.8,209.4c-3.8,10.8-12,19.3-22.1,23.8v-20.1c2.7-2.6,5-5.7,6.3-9.3
	c2.2-6.2,1.8-12.8-1-18.7c-2.8-5.9-7.8-10.3-13.9-12.5c-2.6-0.9-5.4-1.4-8.1-1.4c-10.3,0-19.6,6.5-23.1,16.3
	c-3.3,9.4-0.5,19.5,6.3,25.9v19.7c-19.4-8.7-29.3-30.8-22.1-51.2c7.4-20.8,31.6-32.6,52.6-25.1c10.4,3.7,18.7,11.2,23.5,21.1
	C249.9,187.8,250.4,199,246.8,209.4z"/>
</svg>
