<?xml version="1.0" encoding="utf-8"?>
<!-- Generator: Adobe Illustrator 22.1.0, SVG Export Plug-In . SVG Version: 6.00 Build 0)  -->
<svg version="1.1" id="Capa_1" xmlns="http://www.w3.org/2000/svg" xmlns:xlink="http://www.w3.org/1999/xlink" x="0px" y="0px"
	 viewBox="0 0 494 494" style="enable-background:new 0 0 494 494;" xml:space="preserve">
<style type="text/css">
	.st0{fill:#FFFFFF;stroke:#B46A00;stroke-miterlimit:10;}
	.st1{fill:#FFFFFF;stroke:#000000;stroke-miterlimit:10;}
</style>
<g>
	<path class="st0" d="M260.9,14.7L248.2,4.2l-0.1,0.1l0,0l-11.9,10.3L55.7,169.2v1.1L0,218.4l24.4,28.2l31.3-27v270.3h390.4V215.7
		l24.2,19.9l23.7-28.8L260.9,14.7z M408.8,452.5h-84.3c7.1-7.9,12.3-16.5,15.2-26c7.6-24.9,3-57.4-20.5-91.5
		c-6.9-10-13.2-17.5-20.1-24.4c-12.7-12.5-23.6-23.2-23.6-50.7l0-1.8l-1,1.5c-12.6,19-9.2,42.3-6.1,62.8
		c3.5,23.7,6.6,44.2-14.8,52.8c-2,0.6-4.1,0.9-6.1,0.9l0,0c-8.8,0-16.5-5.5-20.7-14.6c-4.5-9.9-14.4-47.5,46.3-116.9
		c37.1-45,31-78.2,27.4-97.8c-7.9,46.8-72.8,103.2-72.8,103.2c-30.9,34.7-63,70.6-73.3,111.7c-7.5,36.4-2.2,66,15.7,88
		c0.8,1-77.1,2.8-77.1,2.8V187.4L248.6,53l160.2,133.5L408.8,452.5L408.8,452.5z"/>
</g>
<path class="st1" d="M408.8,452.5h-84.3c7.1-7.9,12.3-16.5,15.2-26c7.6-24.9,3-57.4-20.5-91.5c-6.9-10-13.2-17.5-20.1-24.4
	c-12.7-12.5-23.6-23.2-23.6-50.7l0-1.8l-1,1.5c-12.6,19-9.2,42.3-6.1,62.8c3.5,23.7,6.6,44.2-14.8,52.8c-2,0.6-4.1,0.9-6.1,0.9l0,0
	c-8.8,0-16.5-5.5-20.7-14.6c-4.5-9.9-14.4-47.5,46.3-116.9c37.1-45,31-78.2,27.4-97.8c-7.9,46.8-72.8,103.2-72.8,103.2
	c-30.9,34.7-63,70.6-73.3,111.7c-7.5,36.4-2.2,66,15.7,88c0.8,1-77.1,2.8-77.1,2.8V187.4L248.6,53l160.2,133.5L408.8,452.5
	L408.8,452.5z"/>
</svg>
