<?xml version="1.0" encoding="utf-8"?>
<!-- Generator: Adobe Illustrator 22.1.0, SVG Export Plug-In . SVG Version: 6.00 Build 0)  -->
<svg version="1.1" id="Layer_1" xmlns="http://www.w3.org/2000/svg" xmlns:xlink="http://www.w3.org/1999/xlink" x="0px" y="0px"
	 viewBox="0 0 482 482" style="enable-background:new 0 0 482 482;" xml:space="preserve">
<style type="text/css">
	.st0{fill:#FFFFFF;}
</style>
<g>
	<path class="st0" d="M443.5,292.9c3,7.3,10.2,12.5,18.5,12.5c11,0,20-9,20-20s-9-20-20-20c-8.4,0-15.6,5.2-18.5,12.5h-63.9v-14.8
		h26c2,0,3.9-0.8,5.3-2.2l21.3-21.3c2.3,0.9,4.8,1.5,7.4,1.5c11,0,20-9,20-20s-9-20-20-20s-20,9-20,20c0,2.9,0.6,5.7,1.8,8.1
		l-18.9,18.9h-22.9V138.8c0-4.1-3.4-7.5-7.5-7.5h-65.8c-4.1,0-7.5,3.4-7.5,7.5v50.1h-16.9v-50.1c0-4.1-3.4-7.5-7.5-7.5h-65.8
		c-4.1,0-7.5,3.4-7.5,7.5v50.1h-17.9v-50.1c0-4.1-3.4-7.5-7.5-7.5H110c-4.1,0-7.5,3.4-7.5,7.5v109.3H79.6l-18.9-18.9
		c1.1-2.5,1.8-5.2,1.8-8.1c0-11-9-20-20-20s-20,9-20,20s9,20,20,20c2.6,0,5.1-0.5,7.4-1.5L71.2,261c1.4,1.4,3.3,2.2,5.3,2.2h26v14.8
		H38.5c-3-7.3-10.2-12.5-18.5-12.5c-11,0-20,9-20,20s9,20,20,20c8.4,0,15.6-5.2,18.5-12.5h63.9v14.8h-34c-2,0-3.9,0.8-5.3,2.2
		l-21.3,21.3c-2.3-0.9-4.8-1.5-7.4-1.5c-11,0-20,9-20,20s9,20,20,20s20-9,20-20c0-2.9-0.6-5.7-1.8-8.1l18.9-18.9h30.9v90
		c0,14.6,7.9,28.2,20.7,35.3c6.2,3.4,12.9,5.1,19.7,5.1s13.5-1.7,19.7-5.1c12.8-7.1,20.7-20.6,20.7-35.3v-30.7h17.9v30.7
		c0,14.6,7.9,28.2,20.7,35.3c6.2,3.4,12.9,5.1,19.7,5.1s13.5-1.7,19.7-5.1c12.8-7.1,20.7-20.6,20.7-35.3v-30.7h16.9v30.7
		c0,14.6,7.9,28.2,20.7,35.3c6.2,3.4,12.9,5.1,19.7,5.1c6.8,0,13.5-1.7,19.7-5.1c12.8-7.1,20.7-20.6,20.7-35.3v-90h30.9l18.9,18.9
		c-1.1,2.5-1.8,5.2-1.8,8.1c0,11,9,20,20,20s20-9,20-20s-9-20-20-20c-2.6,0-5.1,0.5-7.4,1.5l-21.3-21.3c-1.4-1.4-3.3-2.2-5.3-2.2
		h-34v-14.8H443.5L443.5,292.9z M462,280.4c2.8,0,5,2.2,5,5s-2.2,5-5,5s-5-2.2-5-5S459.3,280.4,462,280.4z M439.5,216.1
		c2.8,0,5,2.2,5,5s-2.2,5-5,5s-5-2.2-5-5S436.8,216.1,439.5,216.1z M37.5,221.1c0-2.8,2.2-5,5-5s5,2.2,5,5s-2.2,5-5,5
		S37.5,223.9,37.5,221.1z M20,290.4c-2.8,0-5-2.2-5-5s2.2-5,5-5s5,2.2,5,5S22.8,290.4,20,290.4z M34.5,354.6c-2.8,0-5-2.2-5-5
		s2.2-5,5-5s5,2.2,5,5S37.3,354.6,34.5,354.6z M452.5,349.6c0,2.8-2.2,5-5,5s-5-2.2-5-5s2.2-5,5-5S452.5,346.9,452.5,349.6z
		 M364.6,146.3v6.9h-50.8v-6.9H364.6z M266.9,146.3v6.9h-50.8v-6.9H266.9z M168.2,146.3v6.9h-50.8v-6.9H168.2z M155.2,434.8
		c-7.7,4.3-17,4.3-24.7,0c-8-4.5-13-13-13-22.2V168.3h50.8v244.4C168.2,421.8,163.2,430.3,155.2,434.8z M183.2,366.9v-163h17.9v163
		H183.2z M253.8,434.8c-7.7,4.3-17,4.3-24.7,0c-8-4.5-13-13-13-22.2V168.3h50.8v244.4C266.9,421.8,261.9,430.3,253.8,434.8z
		 M281.9,366.9v-163h16.9v163H281.9z M351.5,434.8c-7.7,4.3-17,4.3-24.7,0c-8-4.5-13-13-13-22.2V168.3h50.8v244.4
		C364.6,421.8,359.6,430.3,351.5,434.8z"/>
	<path class="st0" d="M336.7,80.8c0,4.8-1.4,6.7-3.6,9.9c-1.2,1.7-2.6,3.7-3.8,6.2c-1.8,3.7-0.1,8.2,3.6,10c1,0.5,2.1,0.7,3.2,0.7
		c2.8,0,5.5-1.6,6.8-4.3c0.6-1.3,1.5-2.5,2.5-4c2.7-3.8,6.4-9.1,6.4-18.6S348,66,345.3,62.2c-2.3-3.2-3.6-5.2-3.6-9.9
		c0-4.8,1.4-6.7,3.6-9.9c0.4-0.5,0.8-1.1,1.1-1.7c2.3-3.4,1.4-8.1-2-10.4c-3.4-2.3-8.1-1.4-10.4,2c-0.3,0.5-0.7,1-1,1.4
		c-2.7,3.8-6.4,9.1-6.4,18.6c0,9.5,3.7,14.7,6.4,18.6C335.3,74.1,336.7,76,336.7,80.8L336.7,80.8z"/>
	<path class="st0" d="M238.5,80.8c0,4.8-1.4,6.7-3.6,9.9c-1.2,1.7-2.6,3.7-3.8,6.2c-1.8,3.7-0.1,8.2,3.6,10c1,0.5,2.1,0.7,3.2,0.7
		c2.8,0,5.5-1.6,6.8-4.3c0.6-1.3,1.5-2.5,2.5-4c2.7-3.8,6.4-9.1,6.4-18.6s-3.7-14.7-6.4-18.6c-2.3-3.2-3.6-5.2-3.6-9.9
		c0-4.8,1.4-6.7,3.6-9.9c0.4-0.5,0.8-1.1,1.1-1.7c2.3-3.4,1.4-8.1-2-10.4c-3.4-2.3-8.1-1.4-10.4,2c-0.3,0.5-0.7,1-1,1.4
		c-2.7,3.8-6.4,9.1-6.4,18.6c0,9.5,3.7,14.7,6.4,18.6C237.1,74.1,238.5,76,238.5,80.8L238.5,80.8z"/>
	<path class="st0" d="M140.3,80.8c0,4.8-1.4,6.7-3.6,9.9c-1.2,1.7-2.6,3.7-3.8,6.2c-1.8,3.7-0.1,8.2,3.6,10c1,0.5,2.1,0.7,3.2,0.7
		c2.8,0,5.5-1.6,6.8-4.3c0.6-1.3,1.5-2.5,2.5-4c2.7-3.8,6.4-9.1,6.4-18.6S151.7,66,149,62.2c-2.3-3.2-3.6-5.2-3.6-9.9
		s1.4-6.7,3.6-9.9c0.4-0.5,0.8-1.1,1.1-1.7c2.3-3.4,1.4-8.1-2-10.4c-3.4-2.3-8.1-1.4-10.4,2c-0.3,0.5-0.7,1-1,1.4
		c-2.7,3.8-6.4,9.1-6.4,18.6s3.7,14.7,6.4,18.6C139,74.1,140.3,76,140.3,80.8z"/>
</g>
</svg>
