<?xml version="1.0" encoding="utf-8"?>
<!-- Generator: Adobe Illustrator 22.1.0, SVG Export Plug-In . SVG Version: 6.00 Build 0)  -->
<svg version="1.1" id="Capa_1" xmlns="http://www.w3.org/2000/svg" xmlns:xlink="http://www.w3.org/1999/xlink" x="0px" y="0px"
	 viewBox="0 0 181.3 181.3" style="enable-background:new 0 0 181.3 181.3;" xml:space="preserve">
<style type="text/css">
	.st0{fill:#F9F95D;stroke:#FFFFFF;stroke-miterlimit:10;}
</style>
<g>
	<path class="st0" d="M118.5,46.3V14.8c0-4.1-3.4-7.5-7.5-7.5H70.4c-4.1,0-7.5,3.4-7.5,7.5v31.5c-11.2,8.5-18.5,21.9-18.5,37
		c0,25.5,20.8,46.3,46.3,46.3S137,108.9,137,83.3C137,68.2,129.7,54.8,118.5,46.3z M77.9,22.3h25.6v16.5c-4.1-1.2-8.4-1.8-12.8-1.8
		c-4.4,0-8.7,0.6-12.8,1.8L77.9,22.3L77.9,22.3z M90.7,114.7c-17.3,0-31.3-14.1-31.3-31.3S73.4,52,90.7,52S122,66.1,122,83.3
		C122,100.6,107.9,114.7,90.7,114.7z"/>
	<path class="st0" d="M40.6,83.3c0-4.1-3.4-7.5-7.5-7.5H7.5c-4.1,0-7.5,3.4-7.5,7.5s3.4,7.5,7.5,7.5h25.6
		C37.2,90.8,40.6,87.5,40.6,83.3z"/>
	<path class="st0" d="M173.8,75.8h-25.6c-4.1,0-7.5,3.4-7.5,7.5s3.4,7.5,7.5,7.5h25.6c4.1,0,7.5-3.4,7.5-7.5S178,75.8,173.8,75.8z"
		/>
	<path class="st0" d="M44.7,47.9c1.5,1.5,3.4,2.2,5.3,2.2c1.9,0,3.8-0.7,5.3-2.2c2.9-2.9,2.9-7.7,0-10.6L37.2,19.2
		c-2.9-2.9-7.7-2.9-10.6,0c-2.9,2.9-2.9,7.7,0,10.6L44.7,47.9z"/>
	<path class="st0" d="M136.7,118.7c-2.9-2.9-7.7-2.9-10.6,0c-2.9,2.9-2.9,7.7,0,10.6l18.1,18.1c1.5,1.5,3.4,2.2,5.3,2.2
		c1.9,0,3.8-0.7,5.3-2.2c2.9-2.9,2.9-7.7,0-10.6L136.7,118.7z"/>
	<path class="st0" d="M44.7,118.7l-18.1,18.1c-2.9,2.9-2.9,7.7,0,10.6c1.5,1.5,3.4,2.2,5.3,2.2s3.8-0.7,5.3-2.2l18.1-18.1
		c2.9-2.9,2.9-7.7,0-10.6C52.3,115.8,47.6,115.8,44.7,118.7z"/>
	<path class="st0" d="M131.4,50.1c1.9,0,3.8-0.7,5.3-2.2l18.1-18.1c2.9-2.9,2.9-7.7,0-10.6c-2.9-2.9-7.7-2.9-10.6,0l-18.1,18.1
		c-2.9,2.9-2.9,7.7,0,10.6C127.5,49.4,129.5,50.1,131.4,50.1z"/>
	<path class="st0" d="M90.7,133.4c-4.1,0-7.5,3.4-7.5,7.5v25.6c0,4.1,3.4,7.5,7.5,7.5s7.5-3.4,7.5-7.5v-25.6
		C98.2,136.8,94.8,133.4,90.7,133.4z"/>
</g>
</svg>
