<?xml version="1.0" encoding="utf-8"?>
<!-- Generator: Adobe Illustrator 22.1.0, SVG Export Plug-In . SVG Version: 6.00 Build 0)  -->
<svg version="1.1" id="Layer_1" xmlns="http://www.w3.org/2000/svg" xmlns:xlink="http://www.w3.org/1999/xlink" x="0px" y="0px"
	 viewBox="0 0 512 512" style="enable-background:new 0 0 512 512;" xml:space="preserve">
<style type="text/css">
	.st0{fill:#FFFFFF;}
	.st1{font-family:'MyriadPro-Regular';}
	.st2{font-size:146.5697px;}
	.st3{fill:none;}
</style>
<g>
	<g>
		<path class="st0" d="M256,0C148.9,0,61.8,87.1,61.8,194.2c0,104.6,180,306.3,187.6,314.9c1.7,1.9,4.1,2.9,6.6,2.9s4.9-1.1,6.6-2.9
			c7.7-8.5,187.6-210.3,187.6-314.9C450.2,87.1,363.1,0,256,0z M256,489.8C223.2,452.1,79.4,281.4,79.4,194.2
			c0-97.4,79.2-176.6,176.6-176.6c97.4,0,176.6,79.2,176.6,176.6C432.6,281.3,288.8,452,256,489.8z"/>
	</g>
</g>
<text transform="matrix(1.0175 0 0 1 118.2292 199.7941)"><tspan x="0" y="0" class="st0 st1 st2">BMT</tspan><tspan x="55.9" y="175.9" class="st0 st1 st2">BR</tspan></text>
<polygon class="st3" points="205,175 226,175 226,175 205,175 "/>
<rect x="284" y="306.5" class="st3" width="119.1" height="6.4"/>
</svg>
