<?xml version="1.0" encoding="utf-8"?>
<!-- Generator: Adobe Illustrator 22.1.0, SVG Export Plug-In . SVG Version: 6.00 Build 0)  -->
<svg version="1.1" id="Layer_1" xmlns="http://www.w3.org/2000/svg" xmlns:xlink="http://www.w3.org/1999/xlink" x="0px" y="0px"
	 viewBox="0 0 512 512" style="enable-background:new 0 0 512 512;" xml:space="preserve">
<style type="text/css">
	.st0{fill:#FFFFFF;}
	.st1{fill:none;}
</style>
<g>
	<g>
		<path class="st0" d="M256,0C148.9,0,61.8,87.1,61.8,194.2c0,104.6,180,306.3,187.6,314.9c1.7,1.9,4.1,2.9,6.6,2.9s4.9-1.1,6.6-2.9
			c7.7-8.5,187.6-210.3,187.6-314.9C450.2,87.1,363.1,0,256,0z M256,489.8C223.2,452.1,79.4,281.4,79.4,194.2
			c0-97.4,79.2-176.6,176.6-176.6c97.4,0,176.6,79.2,176.6,176.6C432.6,281.3,288.8,452,256,489.8z"/>
	</g>
</g>
<polygon class="st1" points="164.3,80.9 201.3,80.9 201.3,80.9 164.3,80.9 "/>
<rect x="284" y="306.5" class="st1" width="119.1" height="6.4"/>
<g>
	<g>
		<path class="st0" d="M436.5,174.4h-36.6c-5.4-73-63.7-131.3-136.7-136.7V1h-22v36.6c-73,5.4-131.3,63.7-136.7,136.7H67.8v22h36.6
			c5.4,73,63.7,131.3,136.7,136.7v36.6h22v-36.6c73-5.4,131.3-63.7,136.7-136.7h36.6V174.4z M252.1,311.6
			c-69.6,0-126.3-56.7-126.3-126.3S182.5,59.1,252.1,59.1s126.3,56.7,126.3,126.3S321.8,311.6,252.1,311.6z"/>
		<path class="st0" d="M274.1,190.7c16.1-10.9,27.2-32.3,27.2-51.5c0-27.2-22.1-49.2-49.2-49.2c-27.2,0-49.2,22-49.2,49.2
			c0,19.3,11.1,40.7,27.2,51.5c-38.6,9.8-67.2,43.3-67.2,68.1c0,29.3,178.3,29.3,178.3,0C341.3,234,312.7,200.5,274.1,190.7z
			 M248.2,205H248l-8.2-9.4c3.9,1.4,8.1,2.3,12.3,2.3c4.3,0,8.4-0.9,12.3-2.3l-8.2,9.4h-0.2l21,50.8l-25,25l-25-25"/>
	</g>
</g>
</svg>
