<?xml version="1.0" encoding="utf-8"?>
<!-- Generator: Adobe Illustrator 22.1.0, SVG Export Plug-In . SVG Version: 6.00 Build 0)  -->
<svg version="1.1" id="Capa_1" xmlns="http://www.w3.org/2000/svg" xmlns:xlink="http://www.w3.org/1999/xlink" x="0px" y="0px"
	 viewBox="0 0 215.7 215.7" style="enable-background:new 0 0 215.7 215.7;" xml:space="preserve">
<style type="text/css">
	.st0{fill:#FFFFFF;}
</style>
<g>
	<g>
		<path class="st0" d="M63.3,103.3c6.5,0,11.8-7.6,11.8-14.1c0-6.5-5.3-11.8-11.8-11.8c-6.5,0-11.9,5.3-11.9,11.8
			C51.4,95.7,56.8,103.3,63.3,103.3z"/>
		<path class="st0" d="M152.4,103.3c6.5,0,11.8-7.6,11.8-14.1c0-6.5-5.3-11.8-11.8-11.8c-6.5,0-11.8,5.3-11.8,11.8
			S145.9,103.3,152.4,103.3z"/>
		<path class="st0" d="M71.5,154.9c-1.8-2.2-2.6-5-2.2-7.8l4.6-41.6c-3.3-0.7-7.1-1.3-10.5-1.3c-8.4,0-18.1,3.2-20,3.9
			c-0.1,0-0.1,0-0.2,0.1c0,0-0.1,0-0.1,0c-0.1,0-0.2,0.1-0.2,0.1c-0.4,0.2-0.9,0.4-1.2,0.8c-0.2,0.1-0.3,0.3-0.4,0.5
			c-0.2,0.3-0.5,0.5-0.6,0.9c-0.1,0.3-0.2,0.6-0.3,0.9c-0.1,0.2-0.2,0.4-0.2,0.7l-3.7,33.7c-0.3,2.6,1.6,4.9,4.1,5.2
			c0.2,0,0.3,0,0.5,0c2.4,0,4.4-1.8,4.7-4.2l3.4-30.7c0.4-0.1,0.8-0.2,1.3-0.4v32l-3.7,46.4c-0.2,3.1,2.1,5.8,5.2,6.1
			c0.1,0,0.3,0,0.4,0c2.9,0,5.4-2.2,5.6-5.2l3.4-41.9c0.7,0.3,1.5,0.5,2.3,0.5c0.8,0,1.6-0.2,2.3-0.5l3.4,41.9
			c0.2,2.9,2.7,5.2,5.6,5.2c0.1,0,0.3,0,0.5,0c3.1-0.2,5.4-3,5.1-6.1l-2.9-35.6C75,158,73,156.8,71.5,154.9z"/>
		<path class="st0" d="M175.8,112.1c0-0.2-0.1-0.4-0.2-0.6c-0.1-0.3-0.1-0.7-0.3-1c-0.1-0.3-0.3-0.5-0.5-0.7
			c-0.2-0.2-0.3-0.5-0.6-0.7c-0.3-0.2-0.6-0.4-0.9-0.5c-0.2-0.1-0.4-0.3-0.6-0.3c-0.5-0.2-11.2-4-20.4-4c-3.5,0-7.2,0.6-10.5,1.3
			l4.6,41.6c0.3,2.8-0.5,5.6-2.2,7.8c-1.5,1.9-3.5,3.1-5.8,3.6l-2.9,35.6c-0.2,3.1,2.1,5.8,5.2,6.1c0.2,0,0.3,0,0.5,0
			c2.9,0,5.4-2.2,5.6-5.2l3.4-41.9c0.7,0.3,1.5,0.5,2.3,0.5c0.8,0,1.6-0.2,2.3-0.5l3.4,41.9c0.2,2.9,2.7,5.2,5.6,5.2
			c0.1,0,0.3,0,0.4,0c3.1-0.3,5.4-3,5.2-6.1l-3.7-46.4v-32c0.5,0.1,0.9,0.3,1.3,0.4l3.4,30.7c0.3,2.4,2.3,4.2,4.7,4.2
			c0.2,0,0.3,0,0.5,0c2.6-0.3,4.4-2.6,4.1-5.2L175.8,112.1z"/>
		<path class="st0" d="M93,76.6c0,8.2,6.6,17.7,14.8,17.7c8.2,0,14.8-9.5,14.8-17.7s-6.6-14.8-14.8-14.8C99.7,61.8,93,68.5,93,76.6z
			"/>
		<path class="st0" d="M136.7,154.1c3.2-0.4,5.5-3.3,5.2-6.5l-4.7-42.2c0-0.3-0.2-0.5-0.3-0.8c-0.1-0.4-0.2-0.8-0.4-1.2
			c-0.2-0.3-0.4-0.6-0.7-0.9c-0.2-0.3-0.4-0.6-0.7-0.8c-0.3-0.3-0.7-0.5-1.1-0.7c-0.2-0.1-0.4-0.3-0.7-0.4c-0.5-0.2-12.3-4.4-23.2-5
			l-0.1,0.2c-0.7,0-1.5-0.2-2.2-0.2s-1.4,0.1-2.2,0.2l-0.1-0.1c-9.9,0.5-20.6,4-22.8,4.8c-0.1,0-0.2,0.1-0.3,0.1
			c-0.1,0-0.1,0-0.1,0.1c-0.1,0-0.2,0.1-0.3,0.2c-0.6,0.2-1.1,0.5-1.6,0.9c-0.2,0.2-0.4,0.4-0.5,0.6c-0.3,0.3-0.6,0.7-0.8,1.1
			c-0.2,0.4-0.3,0.8-0.4,1.2c-0.1,0.3-0.2,0.5-0.3,0.8l-4.7,42.2c-0.4,3.2,2,6.1,5.2,6.5c0.2,0,0.4,0,0.7,0c2.9,0,5.5-2.2,5.8-5.2
			l4.3-38.5c0.5-0.1,1-0.3,1.6-0.5v40l-4.7,58c-0.3,3.9,2.6,7.3,6.4,7.6c0.2,0,0.4,0,0.6,0c3.6,0,6.7-2.8,7-6.5l4.2-52.5
			c0.9,0.4,1.8,0.6,2.8,0.6s2-0.2,2.8-0.6l4.2,52.5c0.3,3.7,3.4,6.5,7,6.5c0.2,0,0.4,0,0.6,0c3.9-0.3,6.8-3.7,6.4-7.6l-4.7-58v-40
			c0.6,0.2,1.1,0.3,1.6,0.5l4.3,38.5c0.3,3,2.9,5.2,5.8,5.2C136.2,154.2,136.4,154.2,136.7,154.1z"/>
		<path class="st0" d="M92.8,16.9c0,0.3,0.1,0.6,0.1,1h9.4c0-0.1,0-0.3,0-0.6c0-0.2,0-0.4,0-0.7v-0.8c0-0.7,0.1-1.5,0.2-2.4
			c0.1-0.9,0.4-1.8,0.8-2.6c0.4-0.8,1-1.5,1.8-2c0.8-0.6,1.8-0.8,3-0.8c1.2,0,2.1,0.2,2.8,0.7c0.7,0.5,1.2,1.1,1.6,1.8
			s0.6,1.4,0.7,2c0.1,0.7,0.2,1.2,0.2,1.6c0,1.6-0.2,3-0.7,4.2c-0.4,1.2-1,2.3-1.7,3.3c-0.7,1-1.4,1.9-2.2,2.8
			c-0.8,0.9-1.5,1.8-2.2,2.7c-0.7,1-1.2,2-1.7,3.1c-0.4,1.1-0.7,2.4-0.7,3.9v3.2h9.4v-2.1c0-1.5,0.2-2.7,0.7-3.7c0.5-1,1-2,1.7-2.9
			c0.7-0.9,1.4-1.8,2.2-2.7c0.8-0.9,1.6-1.9,2.2-3c0.7-1.1,1.3-2.5,1.7-4c0.5-1.5,0.7-3.4,0.7-5.6c0-2-0.3-3.8-1-5.4
			c-0.7-1.6-1.6-3-2.9-4.2c-1.3-1.2-2.8-2.1-4.6-2.7c-1.8-0.7-3.8-1-6-1c-2.7,0-5,0.4-7,1.2c-2,0.8-3.6,1.9-5,3.3
			c-1.3,1.4-2.3,3-3,4.9c-0.7,1.9-1,3.8-1,5.9c0,0.2,0,0.5,0,0.8C92.7,16.4,92.7,16.7,92.8,16.9z"/>
		<rect x="103.9" y="42" class="st0" width="10.3" height="10.3"/>
		<rect x="60.8" y="62.5" class="st0" width="6.6" height="6.5"/>
		<path class="st0" d="M53.7,46.6c0,0.2,0,0.4,0.1,0.6h6c0-0.1,0-0.2,0-0.3c0-0.1,0-0.3,0-0.4v-0.5c0-0.4,0-0.9,0.1-1.5
			c0.1-0.6,0.3-1.1,0.5-1.6c0.3-0.5,0.6-0.9,1.1-1.3c0.5-0.4,1.1-0.5,1.9-0.5c0.7,0,1.3,0.2,1.8,0.5c0.4,0.3,0.8,0.7,1,1.1
			c0.2,0.4,0.4,0.9,0.5,1.3c0.1,0.4,0.1,0.8,0.1,1c0,1-0.1,1.9-0.4,2.7c-0.3,0.8-0.6,1.5-1.1,2.1s-0.9,1.2-1.4,1.8
			c-0.5,0.6-0.9,1.1-1.4,1.7c-0.4,0.6-0.8,1.3-1.1,2c-0.3,0.7-0.4,1.6-0.4,2.5v2.1h6v-1.3c0-0.9,0.1-1.7,0.4-2.4s0.7-1.3,1.1-1.9
			c0.4-0.6,0.9-1.1,1.4-1.7c0.5-0.6,1-1.2,1.4-1.9c0.4-0.7,0.8-1.6,1.1-2.6c0.3-1,0.4-2.2,0.4-3.6c0-1.3-0.2-2.4-0.6-3.4
			c-0.4-1-1-1.9-1.8-2.7s-1.8-1.3-2.9-1.7c-1.1-0.4-2.4-0.6-3.8-0.6c-1.7,0-3.2,0.3-4.4,0.8c-1.3,0.5-2.3,1.2-3.2,2.1
			c-0.8,0.9-1.5,1.9-1.9,3.1s-0.6,2.4-0.6,3.8c0,0.2,0,0.3,0,0.5C53.7,46.2,53.7,46.4,53.7,46.6z"/>
		<path class="st0" d="M142.8,46.6c0,0.2,0,0.4,0.1,0.6h6c0-0.1,0-0.2,0-0.3c0-0.1,0-0.3,0-0.4v-0.5c0-0.4,0-0.9,0.1-1.5
			c0.1-0.6,0.3-1.1,0.5-1.6s0.6-0.9,1.1-1.3c0.5-0.4,1.1-0.5,1.9-0.5c0.7,0,1.3,0.2,1.8,0.5c0.4,0.3,0.8,0.7,1,1.1
			c0.2,0.4,0.4,0.9,0.5,1.3c0.1,0.4,0.1,0.8,0.1,1c0,1-0.1,1.9-0.4,2.7c-0.3,0.8-0.6,1.5-1.1,2.1c-0.4,0.6-0.9,1.2-1.4,1.8
			c-0.5,0.6-0.9,1.1-1.4,1.7c-0.4,0.6-0.8,1.3-1.1,2c-0.3,0.7-0.4,1.6-0.4,2.5v2.1h6v-1.3c0-0.9,0.1-1.7,0.4-2.4
			c0.3-0.7,0.7-1.3,1.1-1.9c0.4-0.6,0.9-1.1,1.4-1.7c0.5-0.6,1-1.2,1.4-1.9c0.4-0.7,0.8-1.6,1.1-2.6c0.3-1,0.4-2.2,0.4-3.6
			c0-1.3-0.2-2.4-0.6-3.4c-0.4-1-1-1.9-1.8-2.7c-0.8-0.7-1.8-1.3-2.9-1.7c-1.1-0.4-2.4-0.6-3.8-0.6c-1.7,0-3.2,0.3-4.4,0.8
			c-1.3,0.5-2.3,1.2-3.2,2.1c-0.8,0.9-1.5,1.9-1.9,3.1c-0.4,1.2-0.6,2.4-0.6,3.8c0,0.2,0,0.3,0,0.5
			C142.8,46.2,142.8,46.4,142.8,46.6z"/>
		<rect x="149.9" y="62.5" class="st0" width="6.6" height="6.5"/>
	</g>
</g>
</svg>
