<?xml version="1.0" encoding="utf-8"?>
<!-- Generator: Adobe Illustrator 22.1.0, SVG Export Plug-In . SVG Version: 6.00 Build 0)  -->
<svg version="1.1" id="Capa_1" xmlns="http://www.w3.org/2000/svg" xmlns:xlink="http://www.w3.org/1999/xlink" x="0px" y="0px"
	 viewBox="0 0 171.6 171.6" style="enable-background:new 0 0 171.6 171.6;" xml:space="preserve">
<style type="text/css">
	.st0{fill:#55D85E;}
	.st1{fill:#FFFFFD;}
</style>
<g>
	<path class="st0" d="M83.8,134.7c-27.2,0-49.3-22.1-49.3-49.3c0-27,22-49.1,49-49.3l0.3,0c27.2,0,49.3,22.1,49.3,49.3
		S111,134.7,83.8,134.7z"/>
	<path class="st0" d="M57.9,118.9c7.5,5.8,16.9,9.3,27.1,9.3c10.2,0,19.6-3.5,27.1-9.3c-2.4-0.5-4.9-1.8-7.4-3.8
		c-3.6-2.8-7-6.7-9.1-10.5c-2.7-4.9-3.1-8.8-1-11.4c0.9-1.2,2.7-2.5,6.2-2.5c5,0,12.3,2.9,17.6,7c2.8,2.2,4.8,4.6,5.8,7
		c3.3-6.2,5.1-13.2,5.1-20.7c0-21.2-15-39-34.9-43.3c0.9,2,1.6,4.6,1.6,8.2c0,8.8-3.9,21.5-11.1,21.5c-7.1,0-11.1-12.7-11.1-21.5
		c0-3.5,0.6-6.1,1.5-8.1c-19.7,4.5-34.5,22.2-34.5,43.2c0,7.5,1.9,14.5,5.1,20.7c1-2.4,3-4.8,5.8-7c5.3-4.1,12.5-7,17.6-7
		c3.5,0,5.3,1.4,6.2,2.5c2,2.6,1.7,6.6-1,11.4c-2.1,3.8-5.5,7.8-9.1,10.5C62.7,117.1,60.2,118.4,57.9,118.9z"/>
	<path class="st0" d="M99.5,97.1c-1.1,0-2,0.2-2.3,0.6c-0.4,0.6-0.4,2.6,1.5,5.9c1.8,3.3,4.7,6.7,7.8,9c2.5,2,4.9,3,6.8,3h0
		c1.6,0,3-0.7,4.1-2.2c1.1-1.4,1.5-2.9,1.2-4.4c-0.4-1.9-2-4-4.6-6.1C109.7,99.7,103.4,97.1,99.5,97.1z"/>
	<path class="st0" d="M68.1,97.1c-3.9,0-10.1,2.6-14.5,6c-2.6,2.1-4.2,4.2-4.6,6.1c-0.3,1.5,0.1,2.9,1.2,4.4
		c1.2,1.5,2.5,2.2,4.1,2.2c1.9,0,4.3-1,6.8-3c3.1-2.4,6-5.8,7.8-9c1.9-3.3,1.9-5.4,1.5-5.9C70,97.3,69.2,97.1,68.1,97.1z"/>
	<path class="st0" d="M83.6,41.2L83.6,41.2c-4,0.1-6.1,3.1-6.1,9.2c0,8.4,3.9,16.5,6.1,16.5s6.1-8.2,6.1-16.5
		C89.7,44.3,87.7,41.2,83.6,41.2L83.6,41.2z"/>
	<path class="st0" d="M83.7,95.1c-5.7,0-10.4-4.7-10.4-10.4S78,74.3,83.7,74.3c5.7,0,10.4,4.7,10.4,10.4
		C94.1,90.4,89.4,95.1,83.7,95.1z"/>
	<path class="st0" d="M83.7,79.3c-3,0-5.4,2.4-5.4,5.4s2.4,5.4,5.4,5.4c3,0,5.4-2.4,5.4-5.4S86.7,79.3,83.7,79.3z"/>
</g>
<path class="st1" d="M152.2,171.6H19.4c-1.4,0-2.5-1.1-2.5-2.5V84.6H2.8c-1,0-1.9-0.6-2.3-1.6c-0.4-0.9-0.1-2,0.6-2.7l83-79.6
	c1-0.9,2.5-0.9,3.5,0l82.8,79.4c0.6,0.5,1,1.2,1,2c0,1.4-1.1,2.5-2.5,2.5c0,0,0,0,0,0h-14.1v84.5
	C154.7,170.5,153.5,171.6,152.2,171.6z M21.9,166.6h127.8V82.1c0-1.4,1.1-2.5,2.5-2.5h10.4L85.8,6L9,79.6h10.4
	c1.4,0,2.5,1.1,2.5,2.5V166.6z M85.1,134.4c-27.2,0-49.3-22.1-49.3-49.3c0-27,22-49.1,49-49.3l0.3,0c27.2,0,49.3,22.1,49.3,49.3
	S112.3,134.4,85.1,134.4z M58,120.2c7.5,5.8,16.9,9.3,27.1,9.3s19.6-3.5,27.1-9.3c-2.4-0.5-4.9-1.8-7.4-3.8c-3.6-2.8-7-6.7-9.1-10.5
	c-2.7-4.9-3.1-8.8-1-11.4c0.9-1.2,2.7-2.5,6.2-2.5c5,0,12.3,2.9,17.6,7c2.8,2.2,4.8,4.6,5.8,7c3.3-6.2,7.8-13.7,5.1-20.7
	C123,68.8,110.7,49,94.5,41.9c0.9,2,1.6,4.6,1.6,8.2c0,8.8-3.9,21.5-11.1,21.5S73.8,58.9,73.8,50.1c0-3.5,0.6-6.1,1.5-8.1
	c-19.7,4.5-34.5,22.2-34.5,43.2c0,7.5,1.9,14.5,5.1,20.7c1-2.4,3-4.8,5.8-7c5.3-4.1,12.5-7,17.6-7c3.5,0,5.3,1.4,6.2,2.5
	c2,2.6,1.7,6.6-1,11.4c-2.1,3.8-5.5,7.8-9.1,10.5C62.9,118.4,60.4,119.6,58,120.2z M100.8,96.8c-1.1,0-2,0.2-2.3,0.6
	c-0.4,0.6-0.4,2.6,1.5,5.9c1.8,3.3,4.7,6.7,7.8,9c2.5,2,4.9,3,6.8,3h0c1.6,0,3-0.7,4.1-2.2c1.1-1.4,1.5-2.9,1.2-4.4
	c-0.4-1.9-2-4-4.6-6.1C111,99.4,104.7,96.8,100.8,96.8z M69.4,96.8c-3.9,0-10.1,2.6-14.5,6c-2.6,2.1-4.2,4.2-4.6,6.1
	c-0.3,1.5,0.1,2.9,1.2,4.4c1.2,1.5,2.5,2.2,4.1,2.2c1.9,0,4.3-1,6.8-3c3.1-2.4,6-5.8,7.8-9c1.9-3.3,1.9-5.4,1.5-5.9
	C71.3,97.1,70.5,96.8,69.4,96.8z M84.9,40.9L84.9,40.9c-4,0.1-6.1,3.1-6.1,9.2c0,8.4,3.9,16.5,6.1,16.5S91,58.4,91,50.1
	C91,44,89,40.9,84.9,40.9L84.9,40.9z M85,94.8c-5.7,0-10.4-4.7-10.4-10.4S79.2,74,85,74c5.7,0,10.4,4.7,10.4,10.4S90.7,94.8,85,94.8
	z M85,79c-3,0-5.4,2.4-5.4,5.4s2.4,5.4,5.4,5.4c3,0,5.4-2.4,5.4-5.4S88,79,85,79z"/>
</svg>
